{
  "accessors": [
    {
      "bufferView": 2,
      "componentType": 5126,
      "count": 65532,
      "max": [
        1.020742654800415,
        0.29025283455848694,
        0.8573311567306519
      ],
      "min": [
        -1.0207427740097046,
        -0.4542583227157593,
        -0.0947444960474968
      ],
      "type": "VEC3"
    },
    {
      "bufferView": 2,
      "byteOffset": 786384,
      "componentType": 5126,
      "count": 65532,
      "max": [
        1.0,
        1.0,
        1.0
      ],
      "min": [
        -1.0,
        -1.0,
        -1.0
      ],
      "type": "VEC3"
    },
    {
      "bufferView": 3,
      "componentType": 5126,
      "count": 65532,
      "max": [
        1.0,
        1.0,
        1.0,
        1.0
      ],
      "min": [
        -1.0,
        -1.0,
        -1.0,
        -1.0
      ],
      "type": "VEC4"
    },
    {
      "bufferView": 1,
      "componentType": 5126,
      "count": 65532,
      "max": [
        0.8750001192092896,
        1.0
      ],
      "min": [
        -6.818435149824609e-09,
        -1.1920928955078125e-07
      ],
      "type": "VEC2"
    },
    {
      "bufferView": 1,
      "byteOffset": 524256,
      "componentType": 5126,
      "count": 65532,
      "max": [
        0.8750001192092896,
        1.0
      ],
      "min": [
        -6.818435149824609e-09,
        -1.1920928955078125e-07
      ],
      "type": "VEC2"
    },
    {
      "bufferView": 1,
      "byteOffset": 1048512,
      "componentType": 5126,
      "count": 65532,
      "max": [
        0.8750001192092896,
        1.0
      ],
      "min": [
        -6.818435149824609e-09,
        -1.1920928955078125e-07
      ],
      "type": "VEC2"
    },
    {
      "bufferView": 1,
      "byteOffset": 1572768,
      "componentType": 5126,
      "count": 65532,
      "max": [
        1.3185698986053467,
        1.2545454502105713
      ],
      "min": [
        -0.3185698986053467,
        -0.05357098579406738
      ],
      "type": "VEC2"
    },
    {
      "bufferView": 1,
      "byteOffset": 2097024,
      "componentType": 5126,
      "count": 65532,
      "max": [
        0.8750001192092896,
        1.0
      ],
      "min": [
        -6.818435149824609e-09,
        -1.1920928955078125e-07
      ],
      "type": "VEC2"
    },
    {
      "bufferView": 0,
      "componentType": 5125,
      "count": 355911,
      "type": "SCALAR"
    },
    {
      "bufferView": 2,
      "byteOffset": 1572768,
      "componentType": 5126,
      "count": 17114,
      "max": [
        0.889775276184082,
        0.2904908061027527,
        0.8549867868423462
      ],
      "min": [
        -0.8878095149993896,
        -0.2153642177581787,
        0.04746459424495697
      ],
      "type": "VEC3"
    },
    {
      "bufferView": 2,
      "byteOffset": 1778136,
      "componentType": 5126,
      "count": 17114,
      "max": [
        0.9999996423721313,
        0.9999179244041443,
        0.9999204874038696
      ],
      "min": [
        -0.9999996423721313,
        -0.9999206066131592,
        -0.9998538494110107
      ],
      "type": "VEC3"
    },
    {
      "bufferView": 3,
      "byteOffset": 1048512,
      "componentType": 5126,
      "count": 17114,
      "max": [
        0.9985532164573669,
        0.9999997019767761,
        0.9898889064788818,
        -1.0
      ],
      "min": [
        -0.9980542063713074,
        -1.0,
        -0.9999971985816956,
        -1.0
      ],
      "type": "VEC4"
    },
    {
      "bufferView": 1,
      "byteOffset": 2621280,
      "componentType": 5126,
      "count": 17114,
      "max": [
        0.8750001192092896,
        1.0
      ],
      "min": [
        0.125,
        -1.1920928955078125e-07
      ],
      "type": "VEC2"
    },
    {
      "bufferView": 1,
      "byteOffset": 2758192,
      "componentType": 5126,
      "count": 17114,
      "max": [
        0.8750001192092896,
        1.0
      ],
      "min": [
        0.125,
        -1.1920928955078125e-07
      ],
      "type": "VEC2"
    },
    {
      "bufferView": 1,
      "byteOffset": 2895104,
      "componentType": 5126,
      "count": 17114,
      "max": [
        0.8750001192092896,
        1.0
      ],
      "min": [
        0.125,
        -1.1920928955078125e-07
      ],
      "type": "VEC2"
    },
    {
      "bufferView": 1,
      "byteOffset": 3032016,
      "componentType": 5126,
      "count": 17114,
      "max": [
        1.0,
        1.0
      ],
      "min": [
        -1.7670927832114103e-08,
        5.960464477539063e-08
      ],
      "type": "VEC2"
    },
    {
      "bufferView": 1,
      "byteOffset": 3168928,
      "componentType": 5126,
      "count": 17114,
      "max": [
        0.8750001192092896,
        1.0
      ],
      "min": [
        0.125,
        -1.1920928955078125e-07
      ],
      "type": "VEC2"
    },
    {
      "bufferView": 0,
      "byteOffset": 1423644,
      "componentType": 5125,
      "count": 91833,
      "type": "SCALAR"
    },
    {
      "bufferView": 2,
      "byteOffset": 1983504,
      "componentType": 5126,
      "count": 19580,
      "max": [
        0.9841648936271667,
        -0.4260975122451782,
        0.7966271638870239
      ],
      "min": [
        -0.9841649532318115,
        -0.5396059155464172,
        -0.0008082129061222076
      ],
      "type": "VEC3"
    },
    {
      "bufferView": 2,
      "byteOffset": 2218464,
      "componentType": 5126,
      "count": 19580,
      "max": [
        1.0,
        0.9999978542327881,
        0.9999994039535522
      ],
      "min": [
        -1.0,
        -0.9999997615814209,
        -0.9999994039535522
      ],
      "type": "VEC3"
    },
    {
      "bufferView": 3,
      "byteOffset": 1322336,
      "componentType": 5126,
      "count": 19580,
      "max": [
        1.0,
        0.9999921321868896,
        1.0,
        1.0
      ],
      "min": [
        -1.0,
        -1.0,
        -1.0,
        -1.0
      ],
      "type": "VEC4"
    },
    {
      "bufferView": 1,
      "byteOffset": 3305840,
      "componentType": 5126,
      "count": 19580,
      "max": [
        0.8750001192092896,
        1.0
      ],
      "min": [
        0.1250000149011612,
        -0.004033565521240234
      ],
      "type": "VEC2"
    },
    {
      "bufferView": 1,
      "byteOffset": 3462480,
      "componentType": 5126,
      "count": 19580,
      "max": [
        1.0000001192092896,
        1.0
      ],
      "min": [
        0.0,
        0.14069026708602905
      ],
      "type": "VEC2"
    },
    {
      "bufferView": 1,
      "byteOffset": 3619120,
      "componentType": 5126,
      "count": 19580,
      "max": [
        0.8750001192092896,
        1.0
      ],
      "min": [
        0.1250000149011612,
        -0.004033565521240234
      ],
      "type": "VEC2"
    },
    {
      "bufferView": 1,
      "byteOffset": 3775760,
      "componentType": 5126,
      "count": 19580,
      "max": [
        0.8750001192092896,
        1.0
      ],
      "min": [
        0.1250000149011612,
        -0.004033565521240234
      ],
      "type": "VEC2"
    },
    {
      "bufferView": 1,
      "byteOffset": 3932400,
      "componentType": 5126,
      "count": 19580,
      "max": [
        0.8750001192092896,
        1.0
      ],
      "min": [
        0.1250000149011612,
        -0.004033565521240234
      ],
      "type": "VEC2"
    },
    {
      "bufferView": 0,
      "byteOffset": 1790976,
      "componentType": 5125,
      "count": 100800,
      "type": "SCALAR"
    },
    {
      "bufferView": 2,
      "byteOffset": 2453424,
      "componentType": 5126,
      "count": 29208,
      "max": [
        0.9676477909088135,
        0.2033085823059082,
        0.5262779593467712
      ],
      "min": [
        -0.9678469896316528,
        -0.07813764363527298,
        0.19538891315460205
      ],
      "type": "VEC3"
    },
    {
      "bufferView": 2,
      "byteOffset": 2803920,
      "componentType": 5126,
      "count": 29208,
      "max": [
        0.999956488609314,
        0.9999849796295166,
        0.9999836683273315
      ],
      "min": [
        -0.9997442960739136,
        -0.9999849796295166,
        -0.9999914169311523
      ],
      "type": "VEC3"
    },
    {
      "bufferView": 1,
      "byteOffset": 4089040,
      "componentType": 5126,
      "count": 29208,
      "max": [
        0.8750001192092896,
        1.0
      ],
      "min": [
        0.125,
        -1.1920928955078125e-07
      ],
      "type": "VEC2"
    },
    {
      "bufferView": 1,
      "byteOffset": 4322704,
      "componentType": 5126,
      "count": 29208,
      "max": [
        0.9853145480155945,
        1.0
      ],
      "min": [
        -3.393832059828128e-08,
        0.0
      ],
      "type": "VEC2"
    },
    {
      "bufferView": 0,
      "byteOffset": 2194176,
      "componentType": 5125,
      "count": 145152,
      "type": "SCALAR"
    }
  ],
  "asset": {
    "extras": {
      "author": "Denague (https://sketchfab.com/Denague)",
      "license": "CC-BY-4.0 (http://creativecommons.org/licenses/by/4.0/)",
      "source": "https://sketchfab.com/3d-models/sofa-canape-b08ceea745094bf2a0809a887e7623c8",
      "title": "Sofa / Canapé"
    },
    "generator": "Sketchfab-15.49.0",
    "version": "2.0"
  },
  "bufferViews": [
    {
      "buffer": 0,
      "byteLength": 2774784,
      "name": "floatBufferViews",
      "target": 34963
    },
    {
      "buffer": 0,
      "byteLength": 4556368,
      "byteOffset": 2774784,
      "byteStride": 8,
      "name": "floatBufferViews",
      "target": 34962
    },
    {
      "buffer": 0,
      "byteLength": 3154416,
      "byteOffset": 7331152,
      "byteStride": 12,
      "name": "floatBufferViews",
      "target": 34962
    },
    {
      "buffer": 0,
      "byteLength": 1635616,
      "byteOffset": 10485568,
      "byteStride": 16,
      "name": "floatBufferViews",
      "target": 34962
    }
  ],
  "buffers": [
    {
      "byteLength": 12121184,
      "uri": "scene.bin"
    }
  ],
  "extensionsUsed": [
    "KHR_texture_transform",
    "KHR_materials_specular"
  ],
  "images": [
    {
      "uri": "textures/Brown_Fabric_baseColor.jpeg"
    },
    {
      "uri": "textures/Brown_Fabric_metallicRoughness.png"
    },
    {
      "uri": "textures/Brown_Fabric_normal.jpeg"
    },
    {
      "uri": "textures/Wood_baseColor.jpeg"
    },
    {
      "uri": "textures/Wood_metallicRoughness.png"
    },
    {
      "uri": "textures/Wood_normal.jpeg"
    },
    {
      "uri": "textures/Fabric_Pied_De_Poule_baseColor.png"
    }
  ],
  "materials": [
    {
      "doubleSided": true,
      "name": "Brown_Fabric",
      "normalTexture": {
        "extensions": {
          "KHR_texture_transform": {
            "offset": [
              0,
              -2
            ],
            "scale": [
              3,
              3
            ]
          }
        },
        "index": 2,
        "texCoord": 2
      },
      "pbrMetallicRoughness": {
        "baseColorTexture": {
          "extensions": {
            "KHR_texture_transform": {
              "offset": [
                0,
                -2
              ],
              "scale": [
                3,
                3
              ]
            }
          },
          "index": 0
        },
        "metallicFactor": 0.0,
        "metallicRoughnessTexture": {
          "extensions": {
            "KHR_texture_transform": {
              "offset": [
                0,
                -2
              ],
              "scale": [
                3,
                3
              ]
            }
          },
          "index": 1,
          "texCoord": 1
        }
      }
    },
    {
      "doubleSided": true,
      "name": "Wood",
      "normalTexture": {
        "index": 5
      },
      "pbrMetallicRoughness": {
        "baseColorTexture": {
          "index": 3
        },
        "metallicFactor": 0.0,
        "metallicRoughnessTexture": {
          "index": 4
        }
      }
    },
    {
      "doubleSided": true,
      "extensions": {
        "KHR_materials_specular": {
          "specularColorFactor": [
            1.0,
            1.0,
            1.0
          ],
          "specularFactor": 1.0
        }
      },
      "name": "Fabric_Pied_De_Poule",
      "pbrMetallicRoughness": {
        "baseColorTexture": {
          "index": 6
        },
        "metallicFactor": 0.0,
        "roughnessFactor": 0.65
      }
    }
  ],
  "meshes": [
    {
      "name": "Object_0",
      "primitives": [
        {
          "attributes": {
            "NORMAL": 1,
            "POSITION": 0,
            "TANGENT": 2,
            "TEXCOORD_0": 3,
            "TEXCOORD_1": 4,
            "TEXCOORD_2": 5,
            "TEXCOORD_3": 6,
            "TEXCOORD_4": 7
          },
          "indices": 8,
          "material": 0,
          "mode": 4
        }
      ]
    },
    {
      "name": "Object_1",
      "primitives": [
        {
          "attributes": {
            "NORMAL": 10,
            "POSITION": 9,
            "TANGENT": 11,
            "TEXCOORD_0": 12,
            "TEXCOORD_1": 13,
            "TEXCOORD_2": 14,
            "TEXCOORD_3": 15,
            "TEXCOORD_4": 16
          },
          "indices": 17,
          "material": 0,
          "mode": 4
        }
      ]
    },
    {
      "name": "Object_2",
      "primitives": [
        {
          "attributes": {
            "NORMAL": 19,
            "POSITION": 18,
            "TANGENT": 20,
            "TEXCOORD_0": 21,
            "TEXCOORD_1": 22,
            "TEXCOORD_2": 23,
            "TEXCOORD_3": 24,
            "TEXCOORD_4": 25
          },
          "indices": 26,
          "material": 1,
          "mode": 4
        }
      ]
    },
    {
      "name": "Object_3",
      "primitives": [
        {
          "attributes": {
            "NORMAL": 28,
            "POSITION": 27,
            "TEXCOORD_0": 29,
            "TEXCOORD_1": 30
          },
          "indices": 31,
          "material": 2,
          "mode": 4
        }
      ]
    }
  ],
  "nodes": [
    {
      "children": [
        1
      ],
      "matrix": [
        1.0,
        0.0,
        0.0,
        0.0,
        0.0,
        2.220446049250313e-16,
        -1.0,
        0.0,
        0.0,
        1.0,
        2.220446049250313e-16,
        0.0,
        0.0,
        0.0,
        0.0,
        1.0
      ],
      "name": "Sketchfab_model"
    },
    {
      "children": [
        2
      ],
      "name": "root"
    },
    {
      "children": [
        3
      ],
      "matrix": [
        1.0,
        0.0,
        0.0,
        0.0,
        0.0,
        2.220446049250313e-16,
        1.0,
        0.0,
        0.0,
        -1.0,
        2.220446049250313e-16,
        0.0,
        0.0,
        0.0,
        0.0,
        1.0
      ],
      "name": "GLTF_SceneRootNode"
    },
    {
      "children": [
        4,
        5,
        6,
        7
      ],
      "matrix": [
        1.0,
        0.0,
        0.0,
        0.0,
        0.0,
        1.0,
        0.0,
        0.0,
        0.0,
        0.0,
        1.0,
        0.0,
        0.0,
        0.539055585861206,
        -0.37119853496551514,
        1.0
      ],
      "name": "dossier_0"
    },
    {
      "mesh": 0,
      "name": "Object_4"
    },
    {
      "mesh": 1,
      "name": "Object_5"
    },
    {
      "mesh": 2,
      "name": "Object_6"
    },
    {
      "mesh": 3,
      "name": "Object_7"
    }
  ],
  "samplers": [
    {
      "magFilter": 9729,
      "minFilter": 9987,
      "wrapS": 10497,
      "wrapT": 10497
    }
  ],
  "scene": 0,
  "scenes": [
    {
      "name": "Sketchfab_Scene",
      "nodes": [
        0
      ]
    }
  ],
  "textures": [
    {
      "sampler": 0,
      "source": 0
    },
    {
      "sampler": 0,
      "source": 1
    },
    {
      "sampler": 0,
      "source": 2
    },
    {
      "sampler": 0,
      "source": 3
    },
    {
      "sampler": 0,
      "source": 4
    },
    {
      "sampler": 0,
      "source": 5
    },
    {
      "sampler": 0,
      "source": 6
    }
  ]
}
